<?xml version="1.0" encoding="UTF-8" standalone="no"?>
<!-- Created with Inkscape (http://www.inkscape.org/) -->
<svg xmlns:rdf="http://www.w3.org/1999/02/22-rdf-syntax-ns#" xmlns="http://www.w3.org/2000/svg" xmlns:i="http://ns.adobe.com/AdobeIllustrator/10.0/" xmlns:cc="http://web.resource.org/cc/" xmlns:xlink="http://www.w3.org/1999/xlink" xmlns:a="http://ns.adobe.com/AdobeSVGViewerExtensions/3.0/" xmlns:dc="http://purl.org/dc/elements/1.1/" xmlns:svg="http://www.w3.org/2000/svg" xmlns:inkscape="http://www.inkscape.org/namespaces/inkscape" xmlns:sodipodi="http://sodipodi.sourceforge.net/DTD/sodipodi-0.dtd" xmlns:ns1="http://sozi.baierouge.fr" id="svg2" version="1.1" viewBox="0 0 499.99999 500.00001" inkscape:version="0.91 r13725">
  <title id="title3758">Hotel is near bike route</title>
  <g id="g10" transform="translate(22.606 22.606)">
    <g id="Layer_1">
      <path id="path13" style="fill-rule:evenodd;stroke:#000000;stroke-width:6.7782;fill:#ffffff" />
      <g id="g3752" transform="matrix(1.2937 0 0 1.2937 -73.693 -68.486)">
        <path id="path101" style="fill-rule:evenodd;fill:#000000" d="m233.28 176.78-28.189 27.432 40.392 23.22c0.252 17.748 0.396 32.76 0.289 46.152-0.109 13.248 1.08 26.244-0.865 33.012-2.088 6.588-6.984 6.516-11.088 6.588-4.141-0.108-10.908-1.944-13.355-6.876-2.449-5.04-1.297-12.78-1.404-22.68-0.252-10.116-0.252-22.104 0-36.937-12.889-5.976-23.616-11.304-32.725-16.38-9.18-5.076-16.992-8.856-21.636-13.716-4.681-5.112-6.155-10.44-6.228-15.552-0.072-5.112 1.728-8.928 5.688-14.508 3.924-5.652 10.08-11.664 17.641-19.008 7.523-7.524 19.764-19.764 27-25.056 7.092-5.256 10.691-6.444 15.659-6.336 5.004 0.072 9.792 3.24 13.932 6.588 3.924 3.168 5.615 6.372 9.936 12.924 4.248 6.588 9.324 15.12 15.373 26.136 11.592-1.044 20.412-1.044 26.748 0 6.156 0.972 9.936 2.808 10.799 6.048 0.828 3.204 0.182 10.476-5.688 12.924-6.047 2.232-22.355 1.116-29.879 1.08-7.525 0-11.484 0.432-15.084-1.08-3.674-1.656-4.32-4.464-7.094-8.424-2.95-4.031-6.226-9.215-10.222-15.551z"/>
        <path id="path103" style="fill-rule:evenodd;fill:#000000" d="m262.52 100.67c13.492 0 24.443 10.16 24.443 22.68s-10.951 22.68-24.443 22.68c-13.494 0-24.445-10.161-24.445-22.68s10.95-22.68 24.445-22.68"/>
        <path id="path105" style="fill-rule:evenodd;fill:#000000" d="m143.07 232.29c37.756 0 68.4 28.434 68.4 63.468s-30.645 63.468-68.4 63.468c-37.757 0-68.4-28.434-68.4-63.468s30.643-63.468 68.4-63.468zm0 12.276c30.463 0 55.188 22.935 55.188 51.192s-24.725 51.191-55.188 51.191c-30.464 0-55.188-22.934-55.188-51.191s24.724-51.192 55.188-51.192z"/>
        <path id="path107" style="fill-rule:evenodd;fill:#000000" d="m321.95 232.29c37.756 0 68.4 28.434 68.4 63.468s-30.645 63.468-68.4 63.468c-37.758 0-68.4-28.434-68.4-63.468s30.642-63.468 68.4-63.468zm0 12.276c30.443 0 55.152 22.935 55.152 51.192s-24.709 51.191-55.152 51.191c-30.445 0-55.152-22.934-55.152-51.191s24.707-51.192 55.152-51.192z"/>
      </g>
    </g>
  </g>
  <metadata>
    <rdf:RDF>
      <cc:Work>
        <dc:format>image/svg+xml</dc:format>
        <dc:type rdf:resource="http://purl.org/dc/dcmitype/StillImage"/>
        <cc:license rdf:resource="http://creativecommons.org/licenses/publicdomain/"/>
        <dc:publisher>
          <cc:Agent rdf:about="http://openclipart.org/">
            <dc:title>Openclipart</dc:title>
          </cc:Agent>
        </dc:publisher>
        <dc:title>Hotel Icon Near Bike Route</dc:title>
        <dc:date>2010-04-23T19:42:15</dc:date>
        <dc:description>Hotel Icons. Originally done for a request, this set has been re-mixed to simple black and white versions. </dc:description>
        <dc:source>https://openclipart.org/detail/50395/hotel-icon-near-bike-route-by-gerald_g</dc:source>
        <dc:creator>
          <cc:Agent>
            <dc:title>Gerald_G</dc:title>
          </cc:Agent>
        </dc:creator>
        <dc:subject>
          <rdf:Bag>
            <rdf:li>bike</rdf:li>
            <rdf:li>hotel</rdf:li>
            <rdf:li>icon</rdf:li>
            <rdf:li>request+completed</rdf:li>
            <rdf:li>services</rdf:li>
            <rdf:li>source+wiki</rdf:li>
            <rdf:li>sports</rdf:li>
            <rdf:li>transportation</rdf:li>
          </rdf:Bag>
        </dc:subject>
      </cc:Work>
      <cc:License rdf:about="http://creativecommons.org/licenses/publicdomain/">
        <cc:permits rdf:resource="http://creativecommons.org/ns#Reproduction"/>
        <cc:permits rdf:resource="http://creativecommons.org/ns#Distribution"/>
        <cc:permits rdf:resource="http://creativecommons.org/ns#DerivativeWorks"/>
      </cc:License>
    </rdf:RDF>
  </metadata>
</svg>
