<?xml version="1.0" encoding="utf-8"?>

<!DOCTYPE svg PUBLIC "-//W3C//DTD SVG 1.1//EN" "http://www.w3.org/Graphics/SVG/1.1/DTD/svg11.dtd">
<svg version="1.1" id="Layer_1" xmlns="http://www.w3.org/2000/svg" xmlns:xlink="http://www.w3.org/1999/xlink" x="0px" y="0px"
	 viewBox="-0.0469 -2.8734 1557.1074 1442.9203" enable-background="new -0.0469 -2.8734 1557.1074 1442.9203" xml:space="preserve"
	>
<path d="M775.53,58.36c1.35-0.49,2.89-1.05,4.33-0.45c2.79,2.38,0.7,6.16-0.16,8.99c-2.89,8.79-10.05,14.97-15.9,21.79
	c-6.55,7.15-12.99,14.4-19.66,21.45c-6.77,7.58-14.16,14.72-19.71,23.29c-1.19,1.88-2.29,4.65-0.38,6.46
	c4.83,5.18,11.58,8.73,14.75,15.33c3.29,7.13,5.16,14.82,6.64,22.5c1.42,8.37,2.51,17.23-0.43,25.41
	c-3.61,10.03-10.8,18.24-18.26,25.62c-4.18,4.2-10.12,5.73-14.77,9.23c-5.68,4.73-9.58,11.56-10.73,18.87
	c-1,7.2,2.56,14.61,0.2,21.64c-3.87,5.79-11.46,6.68-17.14,9.91c-1.89,4.24,1.94,9.82-0.82,13.77c-5.86,0.69-8.6,6.93-14.24,8.05
	c-3.3,0.96-7.66,1.08-9.42,4.57c-1.3,3.46-1.11,7.5-3.53,10.5c-3.98,5.27-8.62,10.91-15.27,12.69c-11.27,1.87-18.51-12.03-29.9-9.18
	c-4.08,2.96-5.39,8.41-6.08,13.15c-0.82,6.87,5.52,11.22,8.08,16.92c9.2,19.3,18.56,38.85,22.99,59.9
	c3.98,19.65,0.09,39.62-1.19,59.33c-0.06,9.15,3.29,17.89,6.57,26.3c1.83,4.01,3.25,8.55,6.67,11.53c3.25-0.61,6.15-2.3,9.15-3.6
	c12.8-5.98,25.31-12.55,37.8-19.17c6.25-3.41,12.58-6.75,18.36-10.95c7.85-5.89,12.74-14.58,18.59-22.26
	c4.33-5.6,10.61-9.27,17.1-11.85c11.1-4.44,21.29-10.83,32.23-15.61c6.2-2.88,12.62,7,7.22,11.38c-6.61,5.7-14,10.46-20.53,16.26
	c-2.01,1.25-0.46,3.93,1.02,4.85c2.11-0.15,4.08-1,6.03-1.76c4.75-2.12,9.79-3.91,13.94-7.13c0.16-2.75-1.42-5.96,0.67-8.28
	c1.25-1.77,3.37-2.49,5.24-3.4c2.42,1.75,4.22,4.16,6.41,6.16c1.38,1.48,3.25,0.06,4.7599-0.4c6.67-2.96,13.33-5.96,19.92-9.1
	c36.48-17.32,72.86-34.87,109.77-51.24c26.59-12.27,53.83-23.01,81-33.91c42.02-16.44,84.25-32.32,126.78-47.39
	c34.04-11.74,68.1801-23.58,103.4-31.31c27.47-6.14,55.1-11.6,82.88-16.14c6.3199-0.82,12.62-2.38,19.0299-2.17
	c3.1001,1.55,4.8401,5.04,4.76,8.45c-8.96,4.11-18.8199,5.63-28.3099,8.09c0.09,0.58,0.26,1.73,0.34,2.31
	c-1.66-0.1-3.3099-0.22-4.9199-0.34c0.0699,79.52,0.3099,159.03,0.1699,238.55c-0.1,27.02-0.9299,54.03-1.0499,81.05
	c-0.4601,23.01-1.0601,46.01-0.9301,69.02c-0.24,58.31,0.05,116.63,0.53,174.94c0.46,51.38-0.5901,102.76-2.39,154.1
	c-0.3101,24.99-1.24,49.98-1.14,74.98c-0.24,28.2999-0.76,56.6-0.9301,84.9099c0.01,28.3401-0.71,56.66-1.0199,84.99
	c0.1799,0.36,0.5399,1.0801,0.72,1.4301c-1.92,4.61-1.37,9.79-1.47,14.6799c-0.2101,3.66,2.73,6.2101,4.9199,8.7401
	c3.66,4.2599,8.5801,7.8199,10.36,13.3899c1.8301,5.9-1.0299,11.8601-0.89,17.8101c0.5801,3.24,3.65,5.5699,3.8201,8.97
	c0.41,6.1-1.24,13.41-7.16,16.4301c-9.96,5.0599-21.78,2.84-31.8099-0.89c-3.74-1.6-8.28-3.28-9.8101-7.42
	c-1.22-5.84,2.86-11.01,2.89-16.6899c-1.71-2.5601-5.42-3.67-5.92-7.04c-1.2799-6.37-2.0699-14.08,2.2101-19.52
	c6.1699-5.59,15.95-4.2,22.0599-9.89c3.72-5.23,2.4-12.01,2.8401-18.01c-0.2401-1.7,1.1699-2.6699,2.48-3.3199
	c-0.5901-1.83-1.28-3.65-1.4401-5.5601c-0.33-20.6899,0.39-41.38,0.42-62.0699c0.1699-30.35,0.35-60.7,0.53-91.05
	c0.38-23.2999,0.59-46.61,0.6499-69.9199c0.41-56.34,1.0901-112.67,1.37-169.01c0.67-28.66,0.4-57.33,0.79-86
	c0.6801-52.66,0.74-105.33,1.53-157.99c0.16-52.6801,1-105.34,1.27-158.01c0.61-53.91,0.83-107.81,1.48-161.71
	c-12.04,1.47-23.9,4.12-35.79,6.41c-24.6799,5.03-49.26,10.6-73.63,16.98c-40.62,11.04-80.09,25.84-119.0699,41.64
	c-46.8301,18.33-93.01,38.26-139.32,57.83c-28.53,12.41-57.19,24.51-85.54,37.3c-16.52,7.42-33.22,14.49-49.2,23.03
	c-1.23,0.8-3.29,1.64-2.83,3.48c1.01,5.88,6.64,10.58,5.37,16.92c-1.66,6-7.39,9.3-11.65,13.32c-7.21,6.53-9.54,16.39-14.9,24.21
	c-3.21,4.92-6.37,10.43-11.96,12.96c-6.09,2.6-12.71,3.5-19.16,4.78c-8.72,1.37-17.4,3.44-26.27,3.29
	c-6.03-0.06-12.19,0.46-17.8,2.8c-6.33,2.42-11.7,6.68-16.77,11.08c-13.61,12.22-29.18,22.05-42.53,34.5699
	c-4.36,3.8701-6.39,9.65-7.31,15.26c-0.21,1.8-0.63,4.01,0.81,5.45c3.06,1.4,7.04,0.82,9.5,3.49c3.66,4.15,5.62,9.56,9.56,13.52
	c5.5,5.53,12.42,9.39,19.41,12.73c10.95,5.54,23.29,7.13,34.8,11.12c29.68,10.66,58.81,22.76,87.77,35.19
	c20.52,8.86,40.6,18.69,60.85,28.11c15.51,7.62,31.05,15.22,45.91,24.06c8.08,4.98,15.31,11.24,22.37,17.56
	c10.53,9.45,17.74,23.16,17.18,37.54c-0.49,24.8-5.32,49.3-6.1,74.1c-1.75,64.31-3.6,128.63-4.26,192.97
	c-0.44,24,3.12,47.9299,9.54,71.03c6.73,25.76,14.19,51.33,21.08,77.0499c2.41,8.3,4.45,16.8101,8.25,24.62
	c3.07,6.4601,8.63,11.49,11.16,18.2001c-0.04,6.02-5.91,12.1899-12.19,10.3199c-4.89-2.48-8.89-6.39-13.76-8.9199
	c0.54,4.25,2.15,8.2699,4.07,12.08c1.56,3.17,6.03,4.51,6.04,8.51c0.52,4.39,0.24,10.9299-4.92,12.41
	c-8.31,2.3199-17.21,2.36-25.64,0.62c-9.17-2.2401-17.1-7.7301-24.4901-13.39c-5.37-4.28-10.86-8.4601-15.66-13.38
	c-5.98-6.0601-10.46-13.41-16.59-19.3401c-14.65-14.33-31.5099-26.11-48.3199-37.73c-7.63-5.09-15.07-10.49-23.11-14.9299
	c-1.62-1.2101-2.07-3.39-2.89-5.13c-2.53-6.99-5.17-14.63-3.13-22.0901c2.19-8.7599,5.95-17.0499,10.08-25.0499
	c1.82-3.72,5.42-6.03,7.76-9.35c1.76-2.5,1.53-5.7101,1.69-8.5901c0.25-15.37-0.81-30.72-2.24-46c-1.25-11.2-2.31-22.49-5.3-33.3899
	c-2.98-11.3601-7.21-22.3201-11.02-33.41c-6.88-19.57-12.52-40.25-10.5-61.17c1.34-21.48,7.69-42.17,12.85-62.93
	c1.84-6.84,1.33-13.99,1.0699-20.98c-0.21-5.22-1.52-10.89-5.55-14.51c-3-2.21-6.71-3.09-10.2-4.18
	c-15.5699-4.23-31.55-6.66-47.41-9.54c-9.76-1.5-19.33-4-28.58-7.4301c-6.8-2.64-14.11-4.37-20.08-8.72c0.08,3.09,0.5,6.23-0.11,9.3
	c-0.89,3.66-5.33,2.53-8.1,3.11c-39.37,1.48-78.77,1.52-118.16,1.76c-14.89,0.59-29.8,0.23-44.71,0.45
	c-2.25,120.61-6.07,241.21-12.56,361.67c-2.98,51.55-6.18,103.1-11.52,154.47c-2.9,25.66-5.74,51.4701-12.18,76.53
	c-2.03,6.66-3.71,13.98-8.86,19.02H325.66c-3.53-22.5-3.35-45.35-3.48-68.0601c0.1-53.6899,2.86-107.3099,5.65-160.9199
	c4.92-90.6901,11.66-181.27,16.73-271.96c1.58-33.67,3.82-67.36,2.86-101.08c-0.44-4.15-0.17-8.65-2.07-12.45
	c-4.92-6.02-12.83-8.55-20.3-9.39c-12.67-1.08-25.33,0.55-37.96,1.41c-12.99,1.23-26.01-0.27-39.02,0.06
	c-49.01,0.68-98.01,2.66-147.04,2.47c-27.37-0.04-54.8-0.27-82.04-3.16c-6.39-0.73-12.76-1.7-18.99-3.3v-90.87
	c1.49-3.88,2.76-7.85,4.51-11.62c0.36,0.02,1.07,0.06,1.42,0.08c0.42,2.43-1.15,4.84-1.56,7.27c10.53,0.89,21.11,0.39,31.66,0.52
	c19.66-0.03,39.32-0.08,58.98,0.06c22.69,0.66,45.32,2.44,67.97,3.91c44.64,2.9901,89.27,6.15,133.97,8.03
	c14.66,0.72,29.36,0.96,44.03,0.53c3.47-0.16,8.56-0.15,9.14-4.64c1.48-10.06-4.03-19.73-2.6-29.81c0.39-2.84,2.13-5.57,4.87-6.63
	c3.68-1.46,7.68-1.77,11.59-2.08c23.57-1.06,47.05,1.86,70.52,3.37c4.51,0.21,9.16,2.31,13.58,0.52
	c-4.36-14.82-10.53-29.04-15.57-43.63c-7.57-21.31-14.12-43.11-17.36-65.53c-3.25-21.67-0.66-43.65,2.45-65.17
	c4.14-27.18,10.21-54.06,17.88-80.46c4.81-16.38,9.84-32.76,16.64-48.44c7.84-18.41,20.78-34.09,34.73-48.22
	c11.42-11.95,24.15-22.52,36.52-33.46c4.34-4.72,9.67-8.62,13.07-14.14c-3.42-2.19-7.98-3.79-11.77-1.52
	c-11.3,5.65-22.38,11.73-33.51,17.73c-7.02,3.68-13.9,7.76-21.41,10.39c-2.66-3.03,0.78-6.18,2.36-8.77
	c6.68-8.41,11.45-18.08,16.58-27.47c6.88-13.4,13.17-27.46,15.18-42.52c2.08-24.68-7.11-48.47-7.57-73.03
	c-0.13-15.36,0.03-30.76,1.28-46.08c0.7-6.96,1.47-13.99,3.73-20.65c3.65-9.7,9.63-18.8,18.27-24.74
	c14.62-10.97,33.64-13.2,51.39-12.76c17.3701,0.63,33.3701,8.03,49.88,12.58c13.05,3.13,25.9,7.28,39.25,9.05
	c11.9,1.73,23.78,4.54,35.89,3.94c7.26-0.2,14.45-1.67,21.24-4.21C737.46,78.01,755.81,66.66,775.53,58.36 M1318.15,283.03
	c-0.03,7.28,0.2899,14.58-0.39,21.84c-0.49,36.38-0.76,72.76-0.89,109.14c-0.8,57.3-0.92,114.61-1.6801,171.91
	c-0.09,49.04-1.12,98.07-1.12,147.11c-0.88,52.98-0.84,105.96-1.5699,158.95c-0.39,27.99-0.15,56-0.6899,83.99
	c-0.2201,26.32-0.53,52.65-0.6101,78.98c0.04,25.7001-0.6599,51.38-0.6899,77.0801c-0.29,33.6699-0.25,67.34-0.45,101
	c-0.1001,2.12,0.9399,4,1.8999,5.84c1.63-92.95,1.11-185.96,4.0901-278.9c1.7699-52.97,1.47-105.99,1.01-158.99
	c-0.1201-52.33-0.67-104.66-0.0601-156.99c0.6-52.68,1.91-105.35,1.91-158.04c0.1-56.65-0.0901-113.3-0.25-169.96
	c-0.15-13.07,0.4199-26.14,0.0399-39.21C1317.76,278.73,1318.22,280.95,1318.15,283.03z"/>
</svg>
