<?xml version="1.0" encoding="UTF-8" standalone="no"?>
<!-- Created with Inkscape (http://www.inkscape.org/) -->
<svg xmlns:rdf="http://www.w3.org/1999/02/22-rdf-syntax-ns#" xmlns="http://www.w3.org/2000/svg" xmlns:i="http://ns.adobe.com/AdobeIllustrator/10.0/" xmlns:cc="http://web.resource.org/cc/" xmlns:xlink="http://www.w3.org/1999/xlink" xmlns:a="http://ns.adobe.com/AdobeSVGViewerExtensions/3.0/" xmlns:dc="http://purl.org/dc/elements/1.1/" xmlns:svg="http://www.w3.org/2000/svg" xmlns:inkscape="http://www.inkscape.org/namespaces/inkscape" xmlns:sodipodi="http://sodipodi.sourceforge.net/DTD/sodipodi-0.dtd" xmlns:ns1="http://sozi.baierouge.fr" id="svg2" version="1.1" viewBox="0 0 499.99999 500.00001" inkscape:version="0.91 r13725">
  <title id="title3847">Hotel is near golf course</title>
  <g id="Layer_1" transform="translate(22.606 22.606)">
    <path id="path13" style="fill-rule:evenodd;stroke:#000000;stroke-width:6.7782;fill:#ffffff" />
    <g id="g3059" style="fill:#000000" transform="matrix(1.2055 0 0 1.2055 -32.46 -52.692)">
      <path id="path105" style="fill-rule:evenodd;fill:#000000" d="m176.76 131.15c9.36-5.148 16.849-8.028 22.608-8.784 5.651-0.792 10.009 0.972 11.7 4.176 1.584 3.096 3.023 7.704-1.656 14.652-4.716 6.948-13.464 15.732-26.388 26.784 12.239 16.74 20.808 32.544 26.388 48.528 5.4 15.912 5.221 33.156 6.264 46.045 0.9 12.635 2.053 9.576-0.432 29.699-2.699 20.232-8.279 74.377-14.652 90.359-6.516 15.697-19.691 9.828-23.004 3.781-3.24-6.301 2.232-27 3.78-40.572 1.476-13.645 3.097-26.713 5.004-40.176-7.344 18.215-16.272 32.904-27.612 45.18-11.447 12.131-31.644 25.596-39.744 27.18-8.027 1.367-10.728-11.375-7.955-18.396 2.771-7.199 16.271-15.047 24.264-23.832 7.848-8.855 16.775-18.576 22.607-28.475 5.761-10.045 11.088-17.029 11.701-30.529 0.396-13.607-3.133-36.359-8.785-49.788-5.724-13.464-19.547-19.944-25.092-30.132-5.58-10.332-8.459-22.464-7.955-30.564 0.467-8.136 5.291-13.896 10.871-17.568 5.58-3.636 15.696-1.332 22.176-4.176 6.373-3.024 11.629-7.344 15.912-13.392z"/>
      <path id="path107" style="fill-rule:evenodd;fill:#000000" d="m121.54 142.45-46.872 56.484c3.924 9.504 7.92 15.768 12.133 19.224 4.176 3.384 12.383 4.5 12.959 0.864 0.469-3.78-2.879-11.592-10.043-23.436l39.343-49.78c-2.485-1.116-5.004-2.232-7.525-3.348z"/>
      <path id="path109" style="fill-rule:evenodd;fill:#000000" d="m116.1 115.02c0 14.004 11.305 25.308 25.309 25.308 13.969 0 25.309-11.304 25.309-25.308 0-13.968-11.34-25.308-25.309-25.308-14.005 0-25.309 11.34-25.309 25.308z"/>
      <path id="path111" style="fill-rule:evenodd;fill:#000000" d="m295.06 72.828v205.27h-7.668v-205.27h7.668z"/>
      <path id="path113" style="fill-rule:evenodd;fill:#000000" d="m356.44 104.69-56.664 32.688v-65.38l56.664 32.688z"/>
      <path id="path115" style="fill-rule:evenodd;fill:#000000" d="m331.38 292.14c0 6.588 5.364 11.916 11.916 11.916 6.588 0 11.916-5.328 11.916-11.916 0-6.553-5.328-11.881-11.916-11.881-6.552 0-11.916 5.328-11.916 11.881z"/>
    </g>
  </g>
  <metadata>
    <rdf:RDF>
      <cc:Work>
        <dc:format>image/svg+xml</dc:format>
        <dc:type rdf:resource="http://purl.org/dc/dcmitype/StillImage"/>
        <cc:license rdf:resource="http://creativecommons.org/licenses/publicdomain/"/>
        <dc:publisher>
          <cc:Agent rdf:about="http://openclipart.org/">
            <dc:title>Openclipart</dc:title>
          </cc:Agent>
        </dc:publisher>
        <dc:title>Hotel Icon Near Golf</dc:title>
        <dc:date>2010-04-23T19:42:15</dc:date>
        <dc:description>Hotel Icons. Originally done for a request, this set has been re-mixed to simple black and white versions. </dc:description>
        <dc:source>https://openclipart.org/detail/50419/hotel-icon-near-golf-by-gerald_g</dc:source>
        <dc:creator>
          <cc:Agent>
            <dc:title>Gerald_G</dc:title>
          </cc:Agent>
        </dc:creator>
        <dc:subject>
          <rdf:Bag>
            <rdf:li>golf</rdf:li>
            <rdf:li>hotel</rdf:li>
            <rdf:li>icon</rdf:li>
            <rdf:li>request+completed</rdf:li>
            <rdf:li>services</rdf:li>
            <rdf:li>source+wiki</rdf:li>
            <rdf:li>sports</rdf:li>
          </rdf:Bag>
        </dc:subject>
      </cc:Work>
      <cc:License rdf:about="http://creativecommons.org/licenses/publicdomain/">
        <cc:permits rdf:resource="http://creativecommons.org/ns#Reproduction"/>
        <cc:permits rdf:resource="http://creativecommons.org/ns#Distribution"/>
        <cc:permits rdf:resource="http://creativecommons.org/ns#DerivativeWorks"/>
      </cc:License>
    </rdf:RDF>
  </metadata>
</svg>
