<?xml version="1.0" encoding="utf-8"?>

<!DOCTYPE svg PUBLIC "-//W3C//DTD SVG 1.1//EN" "http://www.w3.org/Graphics/SVG/1.1/DTD/svg11.dtd">
<svg version="1.1" id="Layer_1" xmlns="http://www.w3.org/2000/svg" xmlns:xlink="http://www.w3.org/1999/xlink" x="0px" y="0px"
	 viewBox="0 0 1976.949 1652.01" enable-background="new 0 0 1976.949 1652.01" xml:space="preserve">
<g>
	<g>
		<path d="M371.612,969.313c0.003,0.023,0.01,0.041,0.013,0.064c0.008-0.01,0.017-0.022,0.025-0.032L371.612,969.313z"/>
		<path d="M1930.922,742.738c-26.142-49.511-35.887-50.844-33.699-59.763c0.857-3.491-12.231-14.742-13.074-15.795
			c-43.208-54.003-19.791-42.967-51.894-94.93c-0.9-1.457-1.488-3.212-1.804-4.906c-2.949-15.805-17.146-28.595-21.073-35.902
			c-11.975-22.288-22.994-23.783-17.965-34.674c4.425-9.581-2.614-21.362-13.183-22.164c-3.696-0.281-5.711-1.809-7.715-4.655
			c-5.36-7.611,3.076-11.235-4.252-21.628c-3.301-4.682-2.492-9.347-1.148-14.242c1.139-4.149,5.403-4.104-4.174-9.596
			c-5.385-3.088-6.224,2.895-8.8,0.021c-4.774-5.328-11.502-9.125-12.157-17.559c-0.898-11.577-9.05-13.559-19.494-35.967
			c-3.25-6.973-8.902-7.533-14.783-2.499c-8.942,7.653-9.225,17.217-16.476,14.572c-6.505-2.373-13.968-2.116-19.448-7.348
			c-1.054-1.006-2.713-0.948-4.201-0.548c-23.549,6.319-41.569-17.375-47.889-11.98c1.478,4.779,4.548,4.929,1.669,7.292
			c-1.665,1.367-2.755,3.46-5.7,1.139c-2.606-2.054-5.921-2.275-7.538,2.093c-0.466,1.258-15.564,1.094-19.605-0.769
			c-8.233-3.794-10.588,5.378-25.458,1.691c-2.516-0.624-7-1.947-6.143,3.987c0.184,1.268-6.678,4.067-8.468,4.889
			c21.534,2.357,33.256-6.877,26.683,8.163c-0.115,0.264,0.499,0.847,0.773,1.282c2.818,0.351,5.437-2.283,8.41-0.613
			c-3.417,2.913-8.68,3.241-11.148,7.705c2.352,1.477,1.752,0.297,23.95-1.339c13.4-0.987,11.446,19.83,6.778,24.579
			c-4.909,4.994-15.774,13.853-19.018,7.901c-5.34-9.799,5.99-15.471-4.602-14.153c-1.341,0.167-3.242,1.48-3.498-0.632
			c-0.823-6.78-8.878-2.113-11.664-3.368c-5.265-2.371-9.516-0.413-13.859,2.288c-9.33,5.802-8.339-4.038-19.961,6.427
			c-2.295-2.169-3.507-6.057-7.54-4.683c-3.209,1.093-4.549,3.812-5.354,7.177c-1.23-5.256-5.076-6.468-8.918-5.519
			c-8.402,2.074-14.137-2.991-16.947-0.692c-1.592,2.396,4.556,6.495-2.712,6.56c-0.827,0.008-2.154-0.42-2.406-0.059
			c-4.261,6.119-8.297-3.668-16.663-2.04c-0.273,3.789,4.285,5.091,3.394,10.358c-4.777-5.946-10.216-2.474-15.484-2.454
			c-1.103,0.004-2.471,0.12-2.371,1.791c0.248,4.14,10.134,0.156,14.358,9.068c-5.116-0.213,1.404,2.946-20.825-0.137
			c2.871,14.534-19.001,9.994-30.91,9.698c1.559,4.521,5.902,5.812,7.409,9.233c1.633,3.708,7.937,3.137,7.754,9.105
			c-6.646-1.879-7.167,7.015-12.387,7.03c-5.944,0.017-7.49,6.16-12.218,7.183c0.06,2.608,3.481,2.286,3.574,4.655
			c-2.384,2.595-6.29,0.595-8.695,2.816c-0.669,3.237,4.372,1.868,3.695,5.332c-18.949,17.552,10.99-14.246-46.424,44.688
			c-1.412,1.45-2.783,3.844-4.84,3.426c-5.261-1.069-7.778,3.112-11.487,5.081c-11.076,5.879-1.205,13.72-9.972,18.625
			c-12.914,7.222,3.064,2.465-15.695,14.688c-19.036,12.402-3.91,7.057-17.706,18.234c-4.46,3.613-6.596-4.184-6.782-5.5
			c-1.852-13.123-13.156-10.863-15.807-22.067c-3.77-15.933-16.113-20.293-21.251-30.321c-7.548-14.731-15.677-4.642-22.271-13.183
			c-5.34-6.917-30.454-23.627-40.977-28.155c-16.766-7.215-8.721-12.485-21.331-17.021c-12.54-4.51-16.919-9.483-23.824-12.755
			c-13.558-6.423-4.006-17.162-18.968-18.801c-10.676-1.169,5.602-8.834-5.557-18.464c-14.869-12.831,0.346-19.773-9.539-57.101
			c-13.017-49.166-8.01-100.076-50.817-118.17c4.073-24.065,42.21-9.493,46.431-25.592c6.347-24.201,1.266-25.167,6.149-27.995
			c2.077-1.203,4.182-2.098,4.247-4.976c0.131-5.735,4.573-4.379,10.053-6.192c19.167-6.339-12.261-34.8-3.543-41.749
			c4.646-3.703,2.149-35.702,1.673-39.608c-0.839-6.881,14.705-43.03-57.787-62.329c-47.877-12.746-57.748,14.225-77.119,11.691
			c-1.002-0.131-92.199-3.757-131.863-27.661c-1.185-0.714-21.603-9.604-22.525-8.72c-2.664,2.555-6.94,0.776-9.793,3.468
			c1.972,2.924,4.599,3.751,7.537,4.317c7.021,1.352,28.886,12.752,27.709,14.806c-0.42,0.733-1.239,1.987-1.594,1.896
			c-5.542-1.422-9.757,3.505-15.001,3.057c-9.873-0.844-21.214,11.095-24.975,13.646c7.016,7.381,2.935,13.016,6.723,13.444
			c9.36,1.057,0.993,4.291,19.025-3.15c-18.338,0.259-20.42-8.942-8.984-6.091c12.691,3.164,18.079,0.186,18.151,3.608
			c0.04,1.871-2.638,0.603-3.274,2.286c5.384,2.109,37.511,3.43,38.852,3.936c13.581,5.129,50.562-1.068,54.341,4.288
			c-2.43,4.064-7.252,3.317-10.519,5.903c-7.271,5.755-15.773,7.104-24.707,3.315c-5.302-2.248-20.611-2.006-19.799,4.517
			c0.597,4.802,10.38-1.754,18.815,0.934c0.206,9.814-80.566,32.292-94.308,47.662c2.186,2.452,5.376,1.475,8.991,1.618
			c-21.62,25.73-30.695,43.538-30.695,43.538c-3.113,2.884,0.83,8.656-3.64,11.557c1.291,9.637-6.964,19.576,1.862,25.536
			c5.188-22.424,0.113-27.518,9.526-32.964c3.045-1.761,5.703-1.684,8.588,1.87c-4.694,0.97-9.42,4.387-7.579,7.243
			c3.239,5.028,26.213-17.611,25.663-2.462c-0.271,7.449,3.282,2.081,3.862,15.421c0.719,16.539-1.24,18.915,1.631,20.338
			c5.087-5.15,2.633-12.471,5.336-18.956c7.054,9.695,6.728,28.925,15.535,35.873c1.929-3.191-1.776-6.232,1.429-9.092
			c7.299,6.145,14.217,12.754,19.198,21.123c5.156,8.661-8.605,4.378-11.818,3.952c-3.601-0.477-3.427,3.546-0.768,4.011
			c21.296,3.722,19.429,0.395,13.638,44.697c-3.777,28.888,4.199,31.567-1.195,49.302c-8.193,26.938-1.138,25.522-6.84,35.795
			c-4.616,8.317,6.291,5.956-1,11.643c-2.898,2.26-7.095,1.456-11.718,5.46c8.821-1.242,11.748,6.293,18.135,6.933
			c0.769,0.077,1.202,0.638,0.811,1.203c-4.558,6.602,5.315,3.839,6.685,9.312c2.052,8.201,6.641,15.704,7.47,24.157
			c0.717,7.318,2.152,14.385,4.074,21.433c2.866,10.507-0.945,15.662,6.813,25.834c9.547,12.518,1.162,29.393,6.878,61.031
			c1.077,5.963,1.051,12.331,0.333,18.372c-1.636,13.764,0.052,27.319,1.371,40.928c0.438,4.511,4.148,5.095,8.776,5.06
			c6.864-0.052,20.987,7.502,19.582,13.231c-7.506,30.597,23.878,38.145-64.125,5.415c-20.075-7.466,0.766-0.928-36.273-19.064
			c-15.483-7.581-19.152,39.081-39.542,35.444c-30.174-5.382-51.848-17.134-90.844-18.698
			c-182.661-7.324-252.889,140.614-280.479,102.345c-8.867-12.299-20.042-14.52-46.948-33.238
			c-10.514-7.315-10.014,5.383-19.418-0.074c-12.148-7.049-33.352-8.023-35.396-6.829c-10.416,6.087-36.144-7.261-47.156-3.412
			c-19.805,6.923-38.883-7.939-40.738,3.146c-1.241,7.411-5.962,6.649-10.952,6.786c-7.307,0.2-15.883,4.681-22.25,3.71
			c-4.007-0.611-12.877,11.167-26.427,4.981c-13.149-6.003-13.181,10.661-26.734,1.354c2.692,4.385,4.802,6.897,4.057,10.314
			c-0.796,3.647,8.32,6.407,0.268,9.092c-0.806,0.269-1.728,0.477-1.59,2.373c2.689,2.418,5.794,5.209,8.898,8.001
			c-4.089,4.282-13.309,6.203-16.604,10.719c-4.633,6.35-13.477,9.598-23.889,14.038c-6.799,2.899-1.467,9.731-11.151,13.047
			c-3.678,1.26-7.081,3.319-11.112,5.271c5.866,2.403,5.62,2.744,9.777,1.592c3.79-1.05,21.499,4.288-15.622,22.062
			c-3.68,1.762-5.955,5.754-10.477,6.064c-8.579,0.589-7.948,6.877-22.633,8.558c-4.554,0.521-9.089,1.206-13.632,1.82
			c3.095,2.836,8.369-1.314,10.829,5.594c1.744,4.898-5.87,7.292-8.393,12.372c13.099,0.164,23.034-9.134,36.29-12.286
			c-5.189,12.652-21.553,22.885-27.392,27.291c1.462,3.439,5.505,2.59,6.703,5.959c1.655,4.655,1.99,4.536,6.727,4.001
			c0.121,0.245,0.412,0.572,0.339,0.723c-3.303,6.828-5.472,31.632-3.932,33.834c2.547,3.643,2.621,7.651,2.144,11.806
			c-1.055,9.191,5.603,7.49,16.56,29.852c18.26,37.267,17.495,41.568,16.198,45.465c-2.654,7.97,4.631,2.302,4.285,11.492
			c-1.625,43.103-18.545,51.646-22.247,56.692c-0.935,1.275-0.811,2.711,0.448,4.231c23.725-18.194,18.521-23.314,25.124-33.427
			c-0.168,4.699,1.105,8.597,3.808,12.192c1.684,2.239,7.718,38.599-1.21,56.364c-0.888,1.766-2.858,3.053-2.528,5.378
			c7.227,5.003,7.214,4.998,3.859,13.151c-0.32,0.777-0.257,1.659,0.756,2.391c10.489-6.996,0.67-17.672,11.949-20.175
			c2.074,1.95-0.473,4.874,1.985,6.385c7.305-7.487,6.79-22.132,15.304-18.858c3.148,1.211,5.275-6.302,7.161-6.449
			c4.864,2.055-0.181,16.173,4.864,33.449c0.713,2.442-2.259,31.623-4.603,35.501c-2.803,4.636-3.301,9.984-5.085,14.921
			c-2.433,6.73,5.216,7.08-0.96,19.133c-8.411,16.414-16.684,15.649-18.641,26.042c-0.526,2.796-2.684,4.376-5.583,4.737
			l0.223,0.158c-0.753,2.414-11.228,15.084-21.48,10.403c-5.307-2.422-8.053,4.698-23.127,10.831
			c-3.623,1.474-17.018,15.776-36.078,18.074c-1.686,0.203-4.311-0.06-4.692,3.552c7.134-1.481,14.075,0.272,21.272-3.001
			c15.377-6.992,30.258-4.382,35.33-15.583c0.866-1.912,2.925-1.643,4.615-1.788c15.27-1.312,21.274-6.108,29.001-8.712
			c3.372-1.136,6.294,1.311,3.384,4.649c-9.404,10.788-37.247,27.123-39.876,41.457c5.51-1.819,10.322-5.058,15.454-7.645
			c2.023-1.019,5.251,0.539,3.52,3.455c-2.321,3.907-5.512,6.011-1.469,8.745c5.956,4.028-2.928,6.315,0.379,10.661
			c2.169-1.212,3.348-3.206,3.807-5.446c1.735-8.474,5.87-1.574,12.453-13.529c12.732-23.122,15.473-12.006,25.177-24.306
			c22.974-29.118,23.828-30.485,28.98-29.858c-1.682,19.007-23.941,28.255-27.086,39.353c11.651,3.858,36.383-42.255,43.659-39.137
			c3.416,1.464,0.636,6.808,0.359,19.44c-0.504,22.981-24.298,46.895-40.991,62.11c-16.203,14.766,50.384-16.835,52.627-80.338
			c0.129-3.65,1.076-7.375,5.659-9.005c5.464,12.021-5.208,33.5-2.239,36.997c6.699,7.891-2.287,30.968,1.281,35.043
			c2.87,3.278,4.286,18.43,4.37,22.775c0.055,2.828,4.486,2.936,5.117,0.79c3.057-10.395,0.352-5.707,4.893-28.071
			c0.445-2.189,3.94-2.581,3.858,0.405c-0.181,6.596,2.341,13.246-0.448,19.807c-0.437,1.028-0.581,2.346-0.385,3.444
			c2.279,12.768,4.651,5.076,9.464,5.803c4.529,36.455,16.854,8.88,22.924,22.028c5.563,12.05,14.469-11.068,16,15.649
			c1.341,23.42,7.802,12.13,7.923,11.128c1.313-10.828,9.116-3.078,10.241-9.001c28.478-150.007,28.572-169.712,36.946-157.984
			c2.363,3.309,22.631,34.006,28.958,31.709c-17.047-19.877-33.181-34.513-29.349-62.165c3.17-22.876,12.014-26.173,17.428-30.592
			c25.138-20.515,13.893-34.153,37.963-64.099c1.304-1.622,2.646-3.228,2.587-5.42c-0.714-26.284,1.497-24.281-22.545-58.685
			c-7.188-10.286,7.504-9.071,10.212-13.693c-0.121-2.774-23.756-13.367-22.829-21.582c5.717,1.764,10.814,2.977,15.549,5.334
			c106.435,52.976,8.15-39.212,139.367,141.925c35.332,48.773,61.969,58.47,74.308,94.308c10.603,30.794,11.128,35.963,6.685,47.327
			c-17.439,44.599-49.06,69.823-6.503,105.235c15.552,12.941-9.734,23.978,10.871,60.293c0.567,1,40.624,57.696,46.993,80.862
			c1.682,6.117,20.493,29.371,18.839,39.913c-0.416,2.652,1.584,3.39,10.65,13.539c12.03,13.466,6.838,23.284,14.051,31.664
			c0.742,0.863,1.225,2.103,0.666,3.278c-1.236,2.599,0.439,4.433,1.478,6.491c8.923,17.684-3.43,12.712,57.856,12.358
			c64.542-0.376,1.065-33.722-31.442-141.06c-9.948-32.851,77.432,70.799,83.17,95.157c2.006,8.518,8.875,1.927,17.593,6.042
			c3.498,1.651,6.772,2.782,10.81,1.072c8.937-3.786,0.565,18.647,3.148,28.081c1.101,4.021,6.82,5.05,9.88,8.187
			c3.481,3.568,29.85,2.771,31.753,2.721c48.539-1.286,54.696,4.062,58.275-4.283c4.935-11.507-5.725-10.69-8.715-18.472
			c-23.326-60.715-28.778-42.756-44.48-78.818c-10.486-24.083-20.76-27.032-47.53-47.757
			c-168.106-130.145-102.998-105.856-95.37-169.8c12.651-106.017-10.851,19.58,53.517-142.054
			c7.443-18.69,85.698,20.952,101.469,25.837c61.975,19.198,125.234,16.18,188.055,15.437c24.322-0.288,36.048-16.251,37.363-6.311
			c1.253,9.472,19.8,19.504,29.359,26.358c14.618,10.48,12.836-6.486,28.898,7.132c9.489,8.046,17.158,26.733,53.486,37.378
			c114.414,33.524,68.486-54.893,99.506,95.068c2.234,10.8,9.629,69.196,9.8,74.465c0.169,5.205,8.641,5.065-13.332,22.376
			c-10.737,8.459-12.793,31.324-24.181,37.171c-3.838,1.971-21.781,14.72-24.223,21.134c-5.982,15.709-26.305,7.487-40.693,22.694
			c-6.488,6.859-14.759,11.472-22.088,17.276c-8.902,7.049-10.206,1.261-17.303,7.823c-13.544,12.522-21.774-1.496-37.063,8.624
			c-8.75,5.792-12.526,4.262-20.296,14.761c-4.574,6.18-6.974,13.501-11.058,19.925c-16.271,25.597,113.292,9.183,148.452,14.477
			c12.631,1.901,3.32-10.415,25.999-28.864c2.489-2.025,4.921-4.23,6.935-6.713c77.097-95.035,89.119-68.525,106.343-108.841
			c5.543-12.972,20.354-30.414,19.02-67.388c-4.007-111.158-5.726-95.87,36.872-59.679c17.595,14.949,16.48,32.83,22.476,45.367
			c12.29,25.701-1.752,24.818,3.45,46.543c4.387,18.322-30.362,103.105-44.136,114.951c-16.069,13.821,1.973,19.357-19.819,27.246
			c-10.62,3.846-7.019,9.471-13.305,14.21c-7.451,5.617-10.976,14.014-16.689,21.552c3.968,0.657,105.054,6.801,107.659-5.082
			c4.184-19.084,21.677-7.919,30.931-53.961c8.323-41.412,8.246-88.647,37.369-144.121c7.086-13.498,3.005-61.434-8.528-77.937
			c-52.93-75.743-40.422-60.535-91.788-156.295c-4.791-8.932,18.877-21.365,26.172-29.995c0.171-0.203,0.509-0.304,0.789-0.369
			c17.728-4.102,45.214-38.148,46.471-62.314c1.42-27.411,25.805-147.981,26.243-148.981c1.117-2.55,39.311-38.046,72.614-177.029
			c2.917-12.177,7.734-11.807,12.709-10.801c16.173,3.27,23.693-1.481,33.703,6.224c9.772,7.522,8.81,10.053,41.448,17.925
			c4.392,1.059,9.355-0.059,12.197,4.937c0.744,1.308,2.574,1.007,4.068,0.932c5.518-0.279,4.255,6.927,8.365,6.56
			c3.888-0.347,1.39-4.387,6.22-7.517c16.105,14.792,15.49,0.228,22.546,9.431c10.421,13.593,34.645,23.264,38.494,24.408
			c7.85,2.332,3.122,9.618,11.385,17.526c21.94,20.994,52.597,24.667,61.287,10.563c3.891-6.314,6.87,1.379,15.202-1.27
			c22.098-7.026,25.298-19.277,30.268-62.331C1947.959,762.595,1938.68,757.432,1930.922,742.738z M835.497,65.396
			c11.046-5.608,17.185-3.509,62.916,2.133C887.074,68.681,842.798,67.154,835.497,65.396z M804.531,190.919
			c7.91-11.667,26.669-30.454,37.863-27.28C836.481,186.412,797.131,201.833,804.531,190.919z M881.164,259.647
			c-7.543-9.267-11.296-20.077-12.962-31.51c0.619-2.939-0.63-6.951,3.134-7.516c6.993-1.049,5.307,14.622,14.13,34.08
			C886.897,257.856,883.833,262.927,881.164,259.647z M80.563,933.383c-1.862-0.437-2.753-5.63,1.047-7.549
			C82.898,928.059,83.163,933.993,80.563,933.383z M102.95,987.147c-2.835-4.236-4.787-7.296-1.531-11.563
			C104.894,978.829,105.13,982.161,102.95,987.147z M140.778,1056.831c-23.489,88.085-22.75-0.257-14.891-19.055
			C132.66,1021.574,144.588,1042.544,140.778,1056.831z M144.753,1073.236c-0.873-2.999-0.654-11.192,2.269-10.065
			C149.234,1064.023,148.627,1070.158,144.753,1073.236z M76.048,1261.606c0.648-1.497,1.537-1.277,7.569-1.277
			C77.062,1265.32,75.614,1262.609,76.048,1261.606z M164.301,1218.575c-0.619,0.925-1.621,1.352-2.77,1.038
			c0.223-8.79,5.663-14.606,11.104-21.193C174.729,1202.811,173.055,1205.495,164.301,1218.575z M276.441,829.526
			c5.345-6.193,0.61,24.096,5.552,56.012C270.005,874.668,270.299,836.643,276.441,829.526z M318.945,833.933
			c4.41,10.6,0.643,12.13,6.12,30.413C316.235,862.867,316.287,835.611,318.945,833.933z M319.041,883.043
			c1.646,8.211,3.375,12.925-0.513,12.828C316.202,895.813,315.007,887.278,319.041,883.043z M306.989,895.335
			c-11.738-2.672-3.902-26.81-10.948-39.008c-1.412-2.444-0.538-6.263-0.52-9.454c0.041-7.095,11.117-1.585,8.84,8.422
			c-1.388,6.102,1.464,12.096-0.136,18.15c-0.321,1.214,0.453,2.839,1.019,4.145C307.647,883.139,307.688,888.869,306.989,895.335z
			 M329.073,1101.995c-3.106-3.209-1.868-6.285,0.149-9.335C330.621,1095.784,329.851,1098.896,329.073,1101.995z M333.421,1137.01
			c-2.038-6.508-0.684-14.175,2.692-13.749C339.108,1123.639,335.529,1133.501,333.421,1137.01z M336.9,1088.52
			c-6.589-4.176-1.943-9.516-7.928-21.995c-2.345-4.891-3.52-10.343-5.202-15.552c0.543-0.218,1.087-0.436,1.63-0.654
			C332.937,1061.655,340.305,1073.042,336.9,1088.52z M330.54,980.598c7.538,0.476,12.569,5.41,17.91,9.778
			C344.379,991.581,345.33,991.161,330.54,980.598z M378.149,1083.908c-1.463-9.334-3.311-17.485-5.414-25.613
			c-2.074-8.015-6.661-15.409-6.595-24.763C379.773,1040.328,395.823,1069.645,378.149,1083.908z M366.061,1098.36
			c0.087,4.591-6.122,6.651-3.948,12.648c1.267,3.493-1.099,8.444-2.249,12.624c-2.969,10.788-8.383,10.954-14.066,21.519
			c-0.269,0.5-1.557,0.45-3.124,0.845c2.143-10.294,1.033-20.637,5.331-30.152c0.466-1.032,1.193-2.333,0.922-3.251
			c-3.238-10.982,0.366-13.539,3.203-64.701c4.724,0.89,6.082,4.693,7.452,7.794C369.035,1077.077,366.042,1097.359,366.061,1098.36
			z M360.23,999.099c-4.083,1.79-6.401-0.511-8.984-3.757C355.545,994.253,357.755,996.961,360.23,999.099z M390.517,982.022
			c-5.44-0.4-11.586-1.511-14.211-7.971c-0.867-2.134-4.292-1.936-4.68-4.674c-5.884,7.283-8.519,1.49-7.462,0.04
			c1.757-2.41,1.006-3.374-1.115-4.746c-5.605-3.626-10.073-8.982-16.763-10.959c-10.395-13.223-15.551-7.93-26.184-24.525
			c-10.128-15.807-10.294-14.122-9.374-32.035c5.037,6.584,8.777,12.038,11.766,19.001c6.832-8.964,5.055-12.512,2.972-51.508
			c1.901-0.209,3.059-1.417,3.177-3.233c1.093-16.695,6.978-59.886,22.543-53.274c80.365,34.141,75.63-7.161,57.644,86.316
			c-2.446,12.715-1.413,53.922,11.233,88.795C428.543,1006.636,404.306,983.035,390.517,982.022z M1238.632,633.246
			c-0.003,0-44.31-13.987-45.771-14.639c-11.615-5.185-30.749,5.724-32.037-7.208c-1.426-14.314-9.049-15.472-8.182-20.841
			c1.355-8.393-3.782-14.391-6.583-19.412c-1.395-2.5,2.127-4.264,4.212-2.371c5.433,4.932,57.427,31.281,58.429,31.349
			c14.947,1.008,24.884,13.152,34.397,26.216C1246.763,631.374,1242.814,632.335,1238.632,633.246z M1283.575,1216.906
			c9.833,5.141,17.785-1.091,22.33,13.842C1313.894,1256.993,1268.469,1220.893,1283.575,1216.906z"/>
		<path d="M89.924,1293.987c0.017-0.101,0.042-0.195,0.06-0.295c-0.088,0.029-0.173,0.065-0.261,0.093L89.924,1293.987z"/>
		<path d="M816.692,148.099c0.008-0.008,0.016-0.016,0.023-0.025c-0.013-0.014-0.026-0.025-0.039-0.04L816.692,148.099z"/>
	</g>
	<polygon points="138.757,1121.963 139.434,1121.79 139.279,1122.353 	"/>
	<polygon points="31.732,1277.152 31.12,1276.883 31.778,1276.701 	"/>
	<polygon points="141.358,1118.246 141.558,1118.8 141.046,1118.745 	"/>
	<polygon points="1614.847,362.939 1614.674,362.489 1615.12,362.542 	"/>
	<path d="M888.558,104.719c-0.572-0.725-0.602-0.453,0.105-1.053C889.236,104.391,889.266,104.119,888.558,104.719z"/>
	<polygon points="823.911,79.526 823.45,79.681 823.511,79.251 	"/>
	<path d="M121.634,1233.809c-0.883-0.771,0.667-0.631-0.451-0.345c-0.501,0.128-0.341,0.517,0.228,0.188L121.634,1233.809z"/>
	<path d="M371.65,969.345c-0.307,0.081-2.083,0.635-2.217,0.347c-0.555-1.193,0.387-0.674,2.179-0.378L371.65,969.345z"/>
</g>
</svg>
