<?xml version="1.0" encoding="utf-8"?>

<!DOCTYPE svg PUBLIC "-//W3C//DTD SVG 1.1//EN" "http://www.w3.org/Graphics/SVG/1.1/DTD/svg11.dtd">
<svg version="1.1" id="Layer_1" xmlns="http://www.w3.org/2000/svg" xmlns:xlink="http://www.w3.org/1999/xlink" x="0px" y="0px"
	 viewBox="0 0 1012.734 1646.755" enable-background="new 0 0 1012.734 1646.755" xml:space="preserve">
<g>
	<path d="M960.748,1514.399c-8.126-0.002-21.465-6.159-26.387-1.054c-1.726,1.791-9.743-3.1-9.988-11.471
		c-0.133-4.536-1.954-7.484-7.168-7.681c-9.994-0.376-20.121-3.011-29.614,2.6c-1.334,0.788-3.208,1.529-4.597,1.225
		c-46.978-10.299-29.019-30.469-54.031-41.564c-4.037-1.791-9.422-1.459-11.835-5.658c-2.446-4.256-0.746-13.443-0.802-18.224
		c-1.827-156.82,26.666-118.246,17.778-234.809c-7.634-100.132,27.879-114.499,5.114-155.875
		c-31.466-57.187-9.259-82.474-109.573-212.722c-5.298-6.879-24.634-39.407-24.729-47.195c-0.314-25.418-23.334-7.613-21.943-27.222
		c1.336-18.823-10.416-33.298-13.225-40.221c-7.106-17.514,5.587-28.027,6.994-46.203c1.513-19.541,5.218-38.901,4.936-58.587
		c-0.046-3.189,0.889-4.306,4.128-4.106c26.901,1.657,31.053-1.693,31.957,5.105c2.35,17.661,56.734,7.337,61.919-21.249
		c1.767-9.739,2.264-10.534-5.569-16.542c-8.064-6.186-12.101-7.816-7.259-9.379c18.545-5.987,17.383-0.547,28.009,8.953
		c3.675,3.286,7.424,7.658,11.883,4.466c4.715-3.375,1.081-8.389-1.152-12.344c-9.615-17.031-26.02-22.348-15.127-23.747
		c5.987-0.769,10.271-12.553,0.408-18.334c23.019-6.692,15.704-25.728-5.767-19.676c-0.233-2.29-0.597-4.038,2.829-4.685
		c10.753-2.029,21.372-7.236,17.973-17.685c-4.851-14.911-76.137,16.213-61.819-7.014c7.877-12.778,8.413-31.783-3.079-33.583
		c-11.145-1.746-8.185,21.181-18.83,30.882c-25.142,22.91-23.261,41.523-31.206,35.777c-4.702-3.4-8.626,3.526-5.387-15.923
		c3.99-23.964,7.875-69.417,8.035-78.375c0.369-20.718-8.483-33.871-7.003-46.329c0.725-6.105-8.681-6.412-7.291-12.69
		c2.257-10.193-5.917-16.125-10.32-24.765c-11.308-22.188,9.623-63.533,10.759-69.888c0,0,29.526-20.711,29.528-20.713
		c7.214-5.058,10.283-8.793,7.697-17.038c-3.519-11.22,2.775-48.301,2.452-51.069c-1.939-16.591,12.833-6.744,14.783-17.386
		c1.815-9.899-26.807-16.563-17.012-33.561c3.528-6.122,2.397-11.065-0.274-16.819c-5.724-12.333-6.546-26.831-16.559-37.313
		c-0.887-0.928-1.759-2.861-1.383-3.852c10.546-27.837-133.789-78.198-160.512,26.883c-9.499,37.351,0.851,43.528,5.185,67.236
		c4.604,25.181,22.362,33.158,20.258,52.812c-0.638,5.962,1.687,12.939-7.058,14.949c-0.341,0.078-0.638,0.5-0.882,0.818
		c-29.53,38.466-26.742,40.043-47.402,55.228c-20.943,15.394-19.87,35.541-25.032,47.92c-13.325,31.957-18.976,69.908-18.755,74.167
		c0.879,16.898-2.623,12.976-35.113,76.516c-44.418,86.869,27.911,57.583,22.93,80.919c-0.529,2.479,5.566,33.583-0.49,52.201
		c-4.704,14.462-4.381,35.42-5.566,39.364c-8.999,29.947-22.412,21.306-44.098,68.601c-21.79,47.521-13.748,45.806-22.365,51.993
		c-14.955,10.738,0.49,22.768-7.297,40.508c0,0-4.739,25.441-7.973,38.64c-2.982,12.172,5.77,24.985,7.958,24.001
		c7.891-3.548,5.416,23.339-7.906,37.315c-32.82,34.432-29.676,151.436-88.401,191.867c-19.824,13.649-35.299,33.116-55.201,47.067
		c-10.456,7.33-14.145,14.508-18.849,26.381c-99.972,252.311-60.329,160.661-145.154,195.408
		c-41.569,17.028,25.753,91.205,6.844,129.253c-9.628,19.374,46.561,101.365,47.177,102.367
		c12.712,20.673,27.917,22.735,46.334,17.978c18.349-4.739,11.888-43.315,11.235-48.793c-0.119-1-13.677-39.189,0.869-80.29
		c7.7-21.756-0.304-21.518,7.966-27.931c10.263-7.957,22.745-34.68,12.047-31.017c-19.658,6.73-23.035,20.865-15.365-7.051
		c19.162-69.737-9.611-33.132,106.596-172.934c71.564-86.097,47.762-70.794,76.001-80.517c35.839-12.34,38.001-24.689,46.809-45.692
		c26.62-63.476,26.137-29.571,65.224-98.009c31.604-55.339,44.345-68.067,52.983-91.223c2.083-5.584,6.623-2.242,19.007,1.472
		c22.883,6.863,15.948-10.821,25.471-4.807c2.348,1.483,3.962,3.32,5.275,5.638c27.988,49.43,118.907,90.253,162.751,161.715
		c11.408,18.594-0.298,4.279-1.305,58.199c-0.212,11.324-4.113,22.602-2.434,33.786c3.265,21.752-9.089,56.355-0.637,85.167
		c14.102,48.07,27.083,198.995,9.101,211.466c-16.206,11.239-10.227,40.864-12.466,58.351c-3.79,29.604-1.835,26.869,72.355,22.249
		c30.623-1.907,37.09,7.244,115.772,7.423c27.302,0.062,25.466,6.154,46.672-20.871
		C971.919,1544.371,973.943,1514.403,960.748,1514.399z M742.318,594.728c4.676,0.091,4.711,4.391,6.101,7.16
		c0.805,1.604-2.071,1.261-2.896,2.597C742.919,603.318,737.146,594.628,742.318,594.728z"/>
</g>
</svg>
