<?xml version="1.0" encoding="UTF-8" standalone="no"?>
<!-- Created with Inkscape (http://www.inkscape.org/) -->
<svg xmlns:rdf="http://www.w3.org/1999/02/22-rdf-syntax-ns#" xmlns="http://www.w3.org/2000/svg" xmlns:i="http://ns.adobe.com/AdobeIllustrator/10.0/" xmlns:cc="http://web.resource.org/cc/" xmlns:xlink="http://www.w3.org/1999/xlink" xmlns:a="http://ns.adobe.com/AdobeSVGViewerExtensions/3.0/" xmlns:dc="http://purl.org/dc/elements/1.1/" xmlns:svg="http://www.w3.org/2000/svg" xmlns:inkscape="http://www.inkscape.org/namespaces/inkscape" xmlns:sodipodi="http://sodipodi.sourceforge.net/DTD/sodipodi-0.dtd" xmlns:ns1="http://sozi.baierouge.fr" id="svg2" version="1.1" viewBox="0 0 499.99999 500.00001" inkscape:version="0.91 r13725">
  <title id="title3869">Hotel has squash court</title>
  <defs id="defs127">
    <linearGradient id="linearGradient3867" y2="227.39" gradientUnits="userSpaceOnUse" x2="454.79" gradientTransform="matrix(1.0845 0 0 1.0845 -19.217 -19.217)" y1="227.39">
      <stop id="stop3863" style="stop-color:#ffffff" offset="0"/>
      <stop id="stop3865" style="stop-color:#ffffff;stop-opacity:0" offset="1"/>
    </linearGradient>
  </defs>
  <g id="Layer_1" transform="translate(22.606 22.606)">
    <path id="path13" style="fill-rule:evenodd;stroke:#000000;stroke-width:6.7782;fill:url(#linearGradient3867)" />
    <g id="g3079" transform="matrix(1.0845 0 0 1.0845 -22.016 -26.414)">
      <path id="path109" style="fill-rule:evenodd;fill:#000000" d="m295.94 130.4c0 16.637-12.543 30.12-28.016 30.12s-28.016-13.483-28.016-30.12 12.543-30.158 28.016-30.158 28.016 13.52 28.016 30.158z"/>
      <path id="path111" style="fill-rule:evenodd;fill:#000000" d="m362.11 91.002c0 7.6615-5.7826 13.896-12.918 13.896-7.1357 0-12.92-6.2343-12.92-13.896 0-7.6615 5.7847-13.858 12.92-13.858 7.1357 0 12.918 6.1968 12.918 13.858z"/>
      <path id="path113" style="fill-rule:evenodd;fill:#000000" d="m202.69 173.36c-10.89-4.2063-21.594-4.8823-32.635-1.9905-11.042 2.9669-24.524 15.924-33.049 19.266-8.4887 3.3049-14.911 3.38-17.464 0.48823-2.5538-2.9294-2.9304-10.741 2.2899-17.764 5.2954-7.0981 16.45-18.553 28.956-24.224 12.544-5.6334 31.924-9.0886 45.481-9.3515 13.484-0.22533 26.928 3.7556 34.891 7.8868 7.9244 4.1687 7.5488 13.22 12.431 16.788 4.8458 3.5303 12.018 0.48823 16.525 4.4316 4.4681 4.0185 7.3986 10.741 10.103 19.266 2.704 8.6004-1.1632 20.243 5.9725 31.622 7.2108 11.38 16.974 23.698 34.439 36.542 9.2774-12.281 12.845-18.59 18.929-26.853 6.0841-8.2248 20.467-30.796 20.467-30.796s-6.9093-19.492-0.93891-30.533c6.0476-11.042 11.005-16.788 18.629-21.369 7.6229-4.5818 22.57-6.7226 31.735 0.6009 9.1627 7.361 8.5252 12.844 7.9244 21.069-0.6009 8.2248-4.2438 16.487-11.905 25.951-11.567 13.408-30.194 11.605-35.078 11.605-4.5808 6.3846-13.821 21.407-18.966 29.594-5.1452 8.2248-17.087 25.313-22.947 32.599-5.8577 7.2108-7.2473 9.8397-11.978 10.366-4.6945 0.48927-9.3525-2.8532-16.074-7.3986-6.7236-4.5818-16.3-11.716-23.886-19.755-7.5488-8.0746-14.458-17.277-21.107-28.167l-17.953 23.735c11.193 8.9373 20.696 17.689 28.958 26.665 8.2624 8.9384 17.237 16.714 20.204 26.666 2.9304 9.9524 0.9389 15.886-2.7406 32.599-3.7181 16.825-13.859 52.54-19.306 67.187-5.3684 14.422-7.698 17.388-12.843 19.23-5.1838 1.8027-15.587 0.78868-17.914-8.375-2.292-9.2764 2.1032-30.308 4.1301-46.419 1.9905-16.112 4.5432-32.298 7.8117-49.424l-37.217-28.13c-21.971 31.096-39.435 55.508-53.292 74.587-13.821 18.928-20.995 29.181-28.957 38.533-7.9244 9.2388-12.281 14.985-18.365 16.788-6.1206 1.69-16.712 0.338-17.914-6.4211-1.1267-6.8363 0.6395-13.746 11.005-34.101 10.516-20.506 32.223-53.33 51.001-87.431 18.775-34.141 38.641-71.997 60.649-115.56zm157.17-11.83c-9.727 12.619-10.103 28.618-0.9003 35.716 9.2013 7.0981 24.563 2.6289 34.288-9.9899 9.6905-12.619 10.105-28.618 0.90239-35.716-9.2013-7.0981-24.563-2.6289-34.29 9.9899z"/>
      <path id="path115" style="fill-rule:evenodd;fill:#000000" d="m52.274 221.85v7.3986h95.28v-7.3986h-95.276z"/>
      <path id="path117" style="fill-rule:evenodd;fill:#000000" d="m140.76 229.32h7.3986l-0.0751-38.12-7.3234 4.3565v33.763z"/>
      <path id="path119" style="fill-rule:evenodd;fill:#000000" d="m140.76 149.03 7.3986-3.4552v-97.57h-7.3986v101.03z"/>
      <path id="path121" style="fill-rule:evenodd;fill:#000000" d="m161.34 245.66 3.7567-6.1216-17.314-17.313-5.2579 5.2203 18.816 18.215z"/>
      <path id="path123" style="fill-rule:evenodd;fill:#000000" d="m339.17 397.57 5.2203-5.2203-65.008-64.033-2.6675 9.5779 62.455 59.676z"/>
    </g>
  </g>
  <metadata>
    <rdf:RDF>
      <cc:Work>
        <dc:format>image/svg+xml</dc:format>
        <dc:type rdf:resource="http://purl.org/dc/dcmitype/StillImage"/>
        <cc:license rdf:resource="http://creativecommons.org/licenses/publicdomain/"/>
        <dc:publisher>
          <cc:Agent rdf:about="http://openclipart.org/">
            <dc:title>Openclipart</dc:title>
          </cc:Agent>
        </dc:publisher>
        <dc:title>Hotel Icon Has Squash Court</dc:title>
        <dc:date>2010-04-23T19:42:18</dc:date>
        <dc:description>Hotel Icons. Originally done for a request, this set has been re-mixed to simple black and white versions. </dc:description>
        <dc:source>https://openclipart.org/detail/50605/hotel-icon-has-squash-court-by-gerald_g</dc:source>
        <dc:creator>
          <cc:Agent>
            <dc:title>Gerald_G</dc:title>
          </cc:Agent>
        </dc:creator>
        <dc:subject>
          <rdf:Bag>
            <rdf:li>hotel</rdf:li>
            <rdf:li>icon</rdf:li>
            <rdf:li>request+completed</rdf:li>
            <rdf:li>services</rdf:li>
            <rdf:li>source+wiki</rdf:li>
            <rdf:li>sports</rdf:li>
            <rdf:li>squash</rdf:li>
          </rdf:Bag>
        </dc:subject>
      </cc:Work>
      <cc:License rdf:about="http://creativecommons.org/licenses/publicdomain/">
        <cc:permits rdf:resource="http://creativecommons.org/ns#Reproduction"/>
        <cc:permits rdf:resource="http://creativecommons.org/ns#Distribution"/>
        <cc:permits rdf:resource="http://creativecommons.org/ns#DerivativeWorks"/>
      </cc:License>
    </rdf:RDF>
  </metadata>
</svg>
