<?xml version="1.0" encoding="UTF-8" standalone="no"?>
<!-- Created with Inkscape (http://www.inkscape.org/) -->
<svg xmlns:rdf="http://www.w3.org/1999/02/22-rdf-syntax-ns#" xmlns="http://www.w3.org/2000/svg" xmlns:i="http://ns.adobe.com/AdobeIllustrator/10.0/" xmlns:cc="http://web.resource.org/cc/" xmlns:xlink="http://www.w3.org/1999/xlink" xmlns:a="http://ns.adobe.com/AdobeSVGViewerExtensions/3.0/" xmlns:dc="http://purl.org/dc/elements/1.1/" xmlns:svg="http://www.w3.org/2000/svg" xmlns:inkscape="http://www.inkscape.org/namespaces/inkscape" xmlns:sodipodi="http://sodipodi.sourceforge.net/DTD/sodipodi-0.dtd" xmlns:ns1="http://sozi.baierouge.fr" id="svg2" version="1.1" viewBox="0 0 499.99999 500.00001" inkscape:version="0.91 r13725">
  <title id="title3806">Hotel has tennis court</title>
  <g id="Layer_1" transform="translate(22.606 22.606)">
    <path id="path13" style="fill-rule:evenodd;stroke:#000000;stroke-width:6.7782;fill:#ffffff" />
    <g id="g3029" transform="matrix(1.0845 0 0 1.0845 -23.762 -28.121)">
      <path id="path99" style="fill-rule:evenodd;fill:#000000" d="m283.33 152.43c10.332-4.104 20.699-4.644 31.248-1.908 10.656 2.736 23.4 15.192 31.717 18.468 8.207 3.096 14.111 3.204 16.74 0.468 2.447-2.844 2.734-10.332-2.197-17.028-5.219-6.84-15.768-17.82-27.756-23.22-12.061-5.436-30.707-8.748-43.596-8.964-12.961-0.252-25.92 3.564-33.48 7.56-7.668 4.032-7.236 12.492-11.879 16.092-4.717 3.276-11.629 0.432-15.876 4.248-4.32 3.744-7.129 10.224-9.684 18.468-2.593 8.208 1.008 19.332-5.725 30.312-7.02 10.944-18.432 22.14-35.208 34.561-8.928-11.772-15.013-22.356-18.937-32.185-3.779-9.936-2.375-15.588-3.996-26.532-1.799-11.016-0.899-28.26-6.588-38.808-5.939-10.62-18.252-20.808-27.756-24.156-9.611-3.276-22.067-1.656-28.619 4.284-6.625 5.904-10.692 19.944-10.117 30.744 0.685 10.656 5.977 24.624 14.076 33.156 8.101 8.424 24.588 11.772 33.912 17.532 9.037 5.652 13.572 8.532 20.7 16.56 7.164 8.136 16.272 24.156 22.032 31.248 5.508 6.84 6.912 9.359 11.448 9.936 4.536 0.432 8.892-2.809 15.407-7.092 6.373-4.5 15.625-11.232 22.896-18.936 7.236-7.776 13.861-16.632 20.267-27l17.174 22.716c-10.729 8.604-19.836 16.991-27.758 25.597-8.099 8.566-16.451 15.982-19.367 25.559-2.881 9.432-0.9 15.264 2.627 31.248 3.564 16.092 13.248 50.328 18.505 64.369 5.111 13.752 7.416 16.668 12.348 18.467 4.932 1.693 14.867 0.684 17.172-8.027 2.123-8.855-2.016-29.16-3.961-44.531-1.979-15.518-4.428-30.926-7.486-47.342l35.676-26.963c21.059 29.736 37.764 53.244 51.084 71.496 13.176 18.072 20.016 27.973 27.719 36.9 7.525 8.891 11.736 14.256 17.641 16.092 5.904 1.619 15.84 0.324 17.172-6.121 1.045-6.551-0.721-13.283-10.584-32.688-10.14-19.7-30.88-51.2-48.88-83.82-18.11-32.72-36.97-69.05-58.1-110.77zm-186.19-34.35c-10.08 7.704-11.88 31.176-0.108 49.032 11.809 17.82 32.725 23.256 42.805 15.552s10.836-29.448-0.973-47.304c-11.772-17.82-31.644-24.984-41.724-17.28zm37.476 73.8c1.404 0 3.133-0.108 4.789-0.72 1.691-0.648 3.779-1.224 5.436-2.7 1.62-1.548 2.988-3.636 4.248-6.408-0.288 2.376-0.072 5.364 0.648 9.108 0.684 3.78 1.836 7.884 3.6 12.996-2.484-2.556-5.221-4.788-8.352-6.84-3.168-2.088-6.625-3.852-10.369-5.436z"/>
      <path id="path101" style="fill-rule:evenodd;fill:#000000" d="m193.9 111.24c0 15.948 12.023 28.872 26.892 28.872 14.833 0 26.856-12.924 26.856-28.872 0-15.984-12.023-28.908-26.856-28.908-14.869 0-26.892 12.924-26.892 28.908z"/>
      <path id="path103" style="fill-rule:evenodd;fill:#000000" d="m62 251.6c0 10.836 8.172 19.621 18.252 19.621 10.044 0 18.216-8.785 18.216-19.621s-8.172-19.619-18.216-19.619c-10.08 0-18.252 8.784-18.252 19.619z"/>
    </g>
  </g>
  <metadata>
    <rdf:RDF>
      <cc:Work>
        <dc:format>image/svg+xml</dc:format>
        <dc:type rdf:resource="http://purl.org/dc/dcmitype/StillImage"/>
        <cc:license rdf:resource="http://creativecommons.org/licenses/publicdomain/"/>
        <dc:publisher>
          <cc:Agent rdf:about="http://openclipart.org/">
            <dc:title>Openclipart</dc:title>
          </cc:Agent>
        </dc:publisher>
        <dc:title>Hotel Icon Has Tennis Court</dc:title>
        <dc:date>2010-04-23T19:42:17</dc:date>
        <dc:description>Hotel Icons. Originally done for a request, this set has been re-mixed to simple black and white versions. </dc:description>
        <dc:source>https://openclipart.org/detail/50533/hotel-icon-has-tennis-court-by-gerald_g</dc:source>
        <dc:creator>
          <cc:Agent>
            <dc:title>Gerald_G</dc:title>
          </cc:Agent>
        </dc:creator>
        <dc:subject>
          <rdf:Bag>
            <rdf:li>hotel</rdf:li>
            <rdf:li>icon</rdf:li>
            <rdf:li>request+completed</rdf:li>
            <rdf:li>services</rdf:li>
            <rdf:li>source+wiki</rdf:li>
            <rdf:li>sports</rdf:li>
            <rdf:li>tennis</rdf:li>
          </rdf:Bag>
        </dc:subject>
      </cc:Work>
      <cc:License rdf:about="http://creativecommons.org/licenses/publicdomain/">
        <cc:permits rdf:resource="http://creativecommons.org/ns#Reproduction"/>
        <cc:permits rdf:resource="http://creativecommons.org/ns#Distribution"/>
        <cc:permits rdf:resource="http://creativecommons.org/ns#DerivativeWorks"/>
      </cc:License>
    </rdf:RDF>
  </metadata>
</svg>
